<svg width="398" height="76" viewBox="0 0 398 76" fill="none" xmlns="http://www.w3.org/2000/svg"><path fill-rule="evenodd" clip-rule="evenodd" d="m193.509 38.364-4.677-9.724c1.379-1.532 8.147-4.676 13.772-5.52 5.624-.843 11.628-.113 16.281 2.76 4.293 2.652 5.714 9.406 6.041 12.484V70.94h-10.018v-2.196c-7.295 3.484-14.809 4.464-20.906 1.306-6.098-3.157-8.929-10.78-7.078-18.184s10.998-10.998 15.68-11.107c3.745-.087 7.658.617 9.146.98.182-.907.436-3.048 0-4.355-.544-1.633-2.504-2.94-6.315-3.05-3.049-.086-9.095 2.433-11.926 4.03m18.706 14.502v3.604c-.818 1.559-3.231 4.39-7.401 4.45-5.214.078-6.233-2.588-6.033-5.091.235-2.94 3.456-4.76 6.654-4.926 2.998-.156 5.278 1.122 6.541 1.83zm-49.682 19.038-23.131-48.046h13.549l10.344 22.346 9.147-22.346h14.482zm-53.464-.964V23.858h8.711l1.198 3.72c1.742-1.45 6.25-4.415 10.344-4.676s7.679.879 9.24 1.306L134.75 36.72c-1.56-.569-4.753-1.97-7.279-1.622-2.526.349-4.827 2.759-5.662 3.92V70.94zM72.95 23.858H59.356v29.617c0 9.877 8.558 18.636 17.883 18.43 9.325-.208 11.798-1.485 15.052-4.502v3.537h9.505V23.858H88.644v27.288c0 2.403 0 8.963-7.53 9.072-7.53.11-8.164-6.669-8.164-9.072zm-25.736-2.466 4.724-10.94c-9.597-5.41-19.871-7.793-30.893-5.696C8.721 8.333 3.22 20.499 9.635 32.712c3.562 6.784 15.977 10.356 22.536 11.886 6.615 1.744 10.975 5.055 7.345 11.278-3.717 6.372-21.772 1.239-28.17-1.959L5 64.55c19.914 11.506 35.32 5.992 39.152 4.107 14.033-6.903 12.736-26.996 1.826-32.287-6.216-3.015-11.14-4.736-14.94-6.065-2.87-1.004-5.1-1.784-6.76-2.727-3.859-2.191-3.917-6.06-2.377-8.368 1.546-2.316 4.055-2.518 6.783-2.54 4.907-.041 14.172 2.671 18.53 4.723m185.02 49.547V5.279h12.981v65.66zm58.931-6.696c-5.319 4.204-11.722 7.624-19.208 7.388-15.411-.487-21.794-13.246-21.473-27.383.331-14.568 13.609-22.977 27.482-20.587 11.106 1.913 14.676 12.344 14.676 17.097v9.203h-29.254c.112 5.74 4.776 10.052 10.244 10.244 4.491.157 9.916-3.382 11.721-4.925zM264.093 41.74h16.434c-.132-2.468-1.897-6.895-6.231-6.895-3.743 0-7.422.173-10.203 6.895m34.73 29.2V24.448h8.83l1.134 3.16c2.079-1.81 5.647-5.401 17.336-3.946 10.806 1.345 13.799 11.765 14.339 16.907v30.37h-12.8V44.25c0-2.51-.883-7.734-6.311-9.085-5.366-1.335-7.889 1.61-9.824 3.869l-.067.078V70.94zm43.372-35.776v-11.05h4.44V14.74h12.845v9.375h8.858v11.05h-8.858V58.19c.841 3.135 6.453 2.076 9.357.793l2.22 11.066c-1.692.804-6.946 2.247-14.431 1.582s-9.779-6.383-9.991-9.16V35.164z" fill="#56565b"/><path d="M377.16 70.94V55.28h15.429v15.66z" fill="#e24725"/></svg>
